<svg width="31" height="31" viewBox="0 0 31 31" fill="none" xmlns="http://www.w3.org/2000/svg">
<mask id="mask0_50_22612" style="mask-type:alpha" maskUnits="userSpaceOnUse" x="0" y="0" width="31" height="31">
<path d="M15.2988 30.6176C23.7481 30.6176 30.5976 23.7681 30.5976 15.3188C30.5976 6.86953 23.7481 0.0200195 15.2988 0.0200195C6.84951 0.0200195 0 6.86953 0 15.3188C0 23.7681 6.84951 30.6176 15.2988 30.6176Z" fill="#C4C4C4"/>
</mask>
<g mask="url(#mask0_50_22612)">
<path d="M12.7752 9.07157C19.2748 6.44557 22.4149 -0.952175 19.7889 -7.45175C17.1629 -13.9513 9.76518 -17.0915 3.2656 -14.4655C-3.23398 -11.8395 -6.37414 -4.44174 -3.74814 2.05783C-1.12214 8.55741 6.27561 11.6976 12.7752 9.07157Z" fill="#4A3AFF"/>
<path d="M27.3333 45.1026C33.8329 42.4766 36.973 35.0788 34.347 28.5793C31.721 22.0797 24.3233 18.9395 17.8237 21.5655C11.3241 24.1915 8.18397 31.5893 10.81 38.0888C13.436 44.5884 20.8337 47.7286 27.3333 45.1026Z" fill="#4A3AFF"/>
<path d="M2.03886 34.366C8.53844 31.74 11.6786 24.3423 9.05259 17.8427C6.42659 11.3431 -0.971149 8.20295 -7.47073 10.8289C-13.9703 13.4549 -17.1105 20.8527 -14.4845 27.3523C-11.8585 33.8518 -4.46072 36.992 2.03886 34.366Z" fill="#080066"/>
<path d="M37.7356 18.9834C44.2352 16.3574 47.3754 8.95969 44.7494 2.46011C42.1234 -4.03947 34.7256 -7.17962 28.226 -4.55362C21.7265 -1.92762 18.5863 5.47012 21.2123 11.9697C23.8383 18.4693 31.2361 21.6094 37.7356 18.9834Z" fill="#080066"/>
</g>
</svg>
